<?xml version="1.0" standalone="no"?>
<!DOCTYPE svg PUBLIC "-//W3C//DTD SVG 20010904//EN"
 "http://www.w3.org/TR/2001/REC-SVG-20010904/DTD/svg10.dtd">
<svg version="1.0" xmlns="http://www.w3.org/2000/svg"
 width="297.000000pt" height="297.000000pt" viewBox="0 0 297.000000 297.000000"
 preserveAspectRatio="xMidYMid meet">
<metadata>
Created by potrace 1.11, written by Peter Selinger 2001-2013
</metadata>
<g transform="translate(0.000000,297.000000) scale(0.100000,-0.100000)"
fill="#000000" stroke="none">
<path d="M1475 2632 c-2 -3 -15 -6 -27 -7 -23 -3 -83 -14 -103 -19 -76 -20
-135 -41 -135 -50 0 -6 30 -90 68 -188 42 -112 73 -180 83 -183 9 -3 44 1 78
9 33 8 61 12 61 10 0 -3 9 0 19 6 14 7 22 7 26 0 4 -7 11 -7 18 -2 21 15 161
3 247 -23 152 -44 288 -140 402 -283 34 -42 96 -189 113 -266 23 -104 16 -262
-15 -356 -61 -182 -155 -307 -304 -406 -92 -61 -117 -138 -77 -240 11 -27 35
-88 53 -136 37 -99 30 -96 128 -50 138 64 310 197 389 300 132 170 208 329
247 514 17 82 23 287 10 378 -9 61 -41 195 -55 225 -5 11 -19 46 -31 77 -12
32 -35 78 -51 103 -16 25 -29 48 -29 51 0 8 -90 126 -131 171 -160 177 -419
318 -639 349 -19 3 -42 8 -50 11 -17 7 -289 11 -295 5z"/>
<path d="M971 2474 c-69 -32 -190 -108 -249 -157 -64 -53 -162 -162 -205 -225
-46 -68 -119 -204 -125 -233 -2 -8 -10 -27 -17 -44 -13 -29 -33 -98 -41 -140
-19 -110 -23 -158 -20 -275 5 -179 32 -292 113 -470 63 -140 234 -346 353
-425 25 -16 47 -33 48 -38 2 -4 8 -5 13 -1 5 3 9 1 9 -5 0 -15 181 -99 274
-127 201 -61 417 -66 620 -15 65 17 120 32 123 34 2 2 -13 46 -33 98 -20 52
-37 99 -38 104 -2 6 -8 21 -13 35 -6 14 -20 53 -33 87 -21 57 -45 85 -59 66
-3 -4 -13 -10 -21 -12 -30 -7 -76 -14 -92 -15 -10 0 -18 -3 -18 -6 0 -7 -155
-4 -210 4 -71 12 -107 23 -195 61 -170 76 -311 231 -381 420 -38 105 -50 289
-24 385 7 25 14 52 15 61 7 37 51 128 91 189 53 81 89 119 187 198 42 35 85
78 94 95 21 38 25 120 8 162 -7 17 -16 39 -20 50 -5 11 -9 22 -9 25 -8 36 -52
140 -61 144 -6 2 -44 -11 -84 -30z"/>
</g>
</svg>
